<svg width="32" height="32" viewBox="0 0 32 32" fill="none" xmlns="http://www.w3.org/2000/svg">
  <!-- Torch Icon -->
  <g>
    <!-- Flame -->
    <path d="M16 4C16 4 14 6 14 8C14 10 16 12 16 12C16 12 18 10 18 8C18 6 16 4 16 4Z" fill="#1B4332" stroke="#7C2D12" stroke-width="0.5"/>
    
    <!-- Bowl/Holder -->
    <path d="M12 12C12 12 14 14 16 14C18 14 20 12 20 12L19 15C19 15 17 17 16 17C15 17 13 15 13 15L12 12Z" fill="#1B4332" stroke="#7C2D12" stroke-width="0.5"/>
    
    <!-- Handle/Base -->
    <rect x="14" y="15" width="4" height="6" rx="1" fill="#1B4332" stroke="#7C2D12" stroke-width="0.5"/>
    
    <!-- Base foot -->
    <rect x="13" y="21" width="6" height="2" rx="1" fill="#1B4332" stroke="#7C2D12" stroke-width="0.5"/>
  </g>
</svg>
